<svg width="33" height="33" viewBox="0 0 33 33" fill="none" xmlns="http://www.w3.org/2000/svg">
<path d="M7.67636 3.46982C10.5564 1.71564 12.2058 0.838545 12.6247 0.838545C13.0436 0.838545 13.6982 1.37527 14.5884 2.44872C15.5047 3.52218 15.9629 4.49091 15.9629 5.35491V17.5687C15.9629 17.752 14.9156 18.2625 12.8211 19.1004C10.7527 19.9382 9.03782 20.5665 7.67636 20.9855V24.952C7.67636 25.9207 7.78109 26.6145 7.99055 27.0335C8.2 27.4524 8.632 27.6618 9.28655 27.6618V28.8793L1.23564 32.2567L0.607273 31C1.18327 31 1.73309 30.6596 2.25673 29.9789C2.728 29.3244 2.96364 28.3295 2.96364 26.9942V6.65091C2.96364 5.05382 2.42691 4.15054 1.35345 3.94109V3.07709L5.32 0.838545C5.84364 1.048 6.36727 1.42763 6.89091 1.97745C7.41455 2.52727 7.67636 3.02472 7.67636 3.46982ZM9.208 4.60872C8.73673 4.60872 8.22618 4.80509 7.67636 5.19782V19.1396C8.35709 19.1396 9.11636 18.9302 9.95418 18.5113C10.792 18.0662 11.2109 17.608 11.2109 17.1367V7.51491C11.2109 5.57745 10.5433 4.60872 9.208 4.60872ZM21.8891 18.472C21.2346 18.472 20.6716 17.9745 20.2004 16.9796C19.7291 15.9847 19.4935 14.7673 19.4935 13.3273V5.15854C19.4935 4.66109 20.868 3.81018 23.6171 2.60582C26.3662 1.37527 27.9502 0.759998 28.3691 0.759998C28.6833 0.759998 29.1284 1.28363 29.7044 2.33091C29.8353 2.59273 30.0186 2.94618 30.2542 3.39127C30.516 3.83636 30.7255 4.20291 30.8826 4.49091C31.2229 5.11927 31.6549 5.43345 32.1786 5.43345V6.21891C31.7596 6.40218 31.1967 6.67709 30.4898 7.04364C28.8404 7.96 27.9502 8.41818 27.8193 8.41818C27.4266 8.41818 26.9291 7.64582 26.3269 6.10109C25.7509 4.55636 25.2796 3.784 24.9131 3.784C24.4418 3.784 24.2062 4.17673 24.2062 4.96218V13.72C24.2062 14.7673 24.4418 15.2909 24.9131 15.2909C25.0178 15.2909 25.8295 14.9505 27.348 14.2698C28.8666 13.5891 29.7829 13.2487 30.0971 13.2487C30.7255 13.2487 31.2753 13.7593 31.7466 14.7804C32.244 15.7753 32.4927 17.0582 32.4927 18.6291V26.9942C32.4927 27.4916 30.9873 28.3556 27.9764 29.5862C24.9916 30.7905 23.2767 31.3927 22.8316 31.3927C22.6484 31.3927 22.4389 31.1702 22.2033 30.7251C21.9676 30.28 21.6535 29.6516 21.2607 28.84C20.8942 28.0022 20.5538 27.3084 20.2396 26.7585C19.9516 26.2087 19.5458 25.9338 19.0222 25.9338V25.1484C19.4411 24.9651 19.9909 24.6902 20.6716 24.3236C22.3473 23.4073 23.2506 22.9491 23.3815 22.9491C23.7742 22.9491 24.324 23.8524 25.0309 25.6589C25.764 27.4655 26.3138 28.3687 26.6804 28.3687C26.9422 28.3687 27.1909 28.264 27.4266 28.0545C27.6622 27.8451 27.78 27.5571 27.78 27.1905V18.3542C27.78 17.176 27.4527 16.5869 26.7982 16.5869C26.5887 16.5869 25.764 16.9011 24.324 17.5295C22.884 18.1578 22.0724 18.472 21.8891 18.472Z" fill="#F7F7F7"/>
</svg>
