<svg width="208" height="208" viewBox="0 0 208 208" fill="none" xmlns="http://www.w3.org/2000/svg">
<path d="M103.679 20.644C4.80139 22.7154 -15.7733 155.393 76.7174 187.217C81.0334 188.023 82.6454 185.319 82.6454 183.075V168.515C58.4654 173.723 53.3521 157.101 53.3521 157.101C51.7315 151.897 48.28 147.457 43.6367 144.603C35.8194 139.299 44.2607 139.386 44.2607 139.386C47.0262 139.748 49.6693 140.749 51.9801 142.311C54.2909 143.872 56.2058 145.951 57.5727 148.382C60.0242 152.65 64.053 155.784 68.7923 157.112C73.5315 158.439 78.6024 157.853 82.9141 155.48C83.3647 151.147 85.2974 147.117 88.4001 144.066C69.0734 141.899 48.8454 134.533 48.8454 101.816C48.7304 93.2924 51.9599 85.0631 57.8414 78.8927C55.1151 71.4637 55.436 63.2582 58.7341 56.0647C58.7341 56.0647 66.014 53.8114 82.6541 65.052C96.8996 61.1932 111.915 61.1932 126.161 65.052C142.697 53.9934 149.977 56.056 149.977 56.056C153.14 63.232 153.426 71.3354 150.783 78.7107C156.669 84.8774 159.897 93.1099 159.77 101.634C159.77 134.446 139.455 141.726 120.129 143.797C129.125 148.564 125.346 179.209 125.883 182.988C125.883 185.233 127.409 187.928 131.907 187.122C224.137 155.575 202.557 22.7154 103.679 20.644Z" fill="white"/>
</svg>
