<svg width="202" height="232" viewBox="0 0 202 232" fill="none" xmlns="http://www.w3.org/2000/svg">
<path d="M0 14.9375V217.062H202V14.9375H0ZM109.928 172.577C109.928 192.248 98.3848 201.226 81.5665 201.226C66.3714 201.226 57.579 193.376 53.0701 183.856L68.5357 174.517C71.5116 179.796 74.217 184.262 80.7549 184.262C86.9772 184.262 90.9451 181.826 90.9451 172.306V107.744H109.928V172.577ZM154.837 201.226C137.207 201.226 125.799 192.835 120.253 181.826L135.719 172.893C139.777 179.525 145.097 184.443 154.431 184.443C162.276 184.443 167.326 180.518 167.326 175.058C167.326 168.562 162.186 166.261 153.484 162.426L148.75 160.395C135.042 154.575 125.979 147.221 125.979 131.746C125.979 117.489 136.846 106.661 153.754 106.661C165.838 106.661 174.496 110.857 180.718 121.865L165.929 131.34C162.682 125.52 159.165 123.219 153.709 123.219C148.163 123.219 144.646 126.738 144.646 131.34C144.646 137.025 148.163 139.326 156.325 142.89L161.059 144.92C177.201 151.823 186.264 158.906 186.264 174.788C186.264 191.842 172.827 201.226 154.837 201.226Z" fill="white"/>
</svg>
