<svg width="89" height="89" viewBox="0 0 89 89" fill="none" xmlns="http://www.w3.org/2000/svg">
<rect width="89" height="89" fill="#F1F1F1"/>
<path d="M70.4583 11.125C72.4254 11.125 74.3118 11.9064 75.7027 13.2973C77.0936 14.6882 77.875 16.5746 77.875 18.5417V70.4583C77.875 72.4254 77.0936 74.3118 75.7027 75.7027C74.3118 77.0936 72.4254 77.875 70.4583 77.875H18.5417C16.5746 77.875 14.6882 77.0936 13.2973 75.7027C11.9064 74.3118 11.125 72.4254 11.125 70.4583V18.5417C11.125 16.5746 11.9064 14.6882 13.2973 13.2973C14.6882 11.9064 16.5746 11.125 18.5417 11.125H70.4583ZM68.6042 68.6042V48.95C68.6042 45.7438 67.3305 42.6688 65.0633 40.4017C62.7962 38.1345 59.7212 36.8608 56.515 36.8608C53.3629 36.8608 49.6917 38.7892 47.9117 41.6817V37.5654H37.5654V68.6042H47.9117V50.3221C47.9117 47.4667 50.2108 45.1304 53.0663 45.1304C54.4432 45.1304 55.7637 45.6774 56.7373 46.651C57.7109 47.6246 58.2579 48.9452 58.2579 50.3221V68.6042H68.6042ZM25.5133 31.7433C27.1656 31.7433 28.7503 31.087 29.9186 29.9186C31.087 28.7503 31.7433 27.1656 31.7433 25.5133C31.7433 22.0646 28.9621 19.2463 25.5133 19.2463C23.8512 19.2463 22.2571 19.9065 21.0818 21.0818C19.9065 22.2571 19.2463 23.8512 19.2463 25.5133C19.2463 28.9621 22.0646 31.7433 25.5133 31.7433ZM30.6679 68.6042V37.5654H20.3958V68.6042H30.6679Z" fill="#242424"/>
</svg>
