<svg width="208" height="208" viewBox="0 0 208 208" fill="none" xmlns="http://www.w3.org/2000/svg">
<path d="M104 87.62C112.927 87.62 120.207 94.9 120.207 104C120.207 112.667 112.927 120.033 104 120.033C95.0733 120.033 87.7933 112.667 87.7933 104C87.7933 94.9 95.0733 87.62 104 87.62ZM63.8733 173.333C69.3333 176.627 81.2933 171.6 95.0733 158.6C90.5667 153.487 86.1467 147.94 81.9867 142.133C75.0033 141.46 68.0603 140.419 61.1867 139.013C56.7667 157.56 58.4133 170.3 63.8733 173.333ZM70.0267 123.587L67.5133 119.167C66.56 121.68 65.6067 124.193 65 126.62C67.34 127.14 69.94 127.573 72.6267 128.007L70.0267 123.587ZM126.707 117L133.727 104L126.707 91C124.107 86.4067 121.333 82.3333 118.82 78.26C114.14 78 109.2 78 104 78C98.8 78 93.86 78 89.18 78.26C86.6667 82.3333 83.8933 86.4067 81.2933 91L74.2733 104L81.2933 117C83.8933 121.593 86.6667 125.667 89.18 129.74C93.86 130 98.8 130 104 130C109.2 130 114.14 130 118.82 129.74C121.333 125.667 124.107 121.593 126.707 117ZM104 58.76C102.353 60.6667 100.62 62.66 98.8867 65H109.113C107.38 62.66 105.647 60.6667 104 58.76ZM104 149.24C105.647 147.333 107.38 145.34 109.113 143H98.8867C100.62 145.34 102.353 147.333 104 149.24ZM144.04 34.6666C138.667 31.3733 126.707 36.4 112.927 49.4C117.433 54.5133 121.853 60.06 126.013 65.8667C133.12 66.56 140.14 67.6 146.813 68.9867C151.233 50.44 149.587 37.7 144.04 34.6666ZM137.973 84.4133L140.487 88.8333C141.44 86.32 142.393 83.8067 143 81.38C140.66 80.86 138.06 80.4267 135.373 79.9933L137.973 84.4133ZM150.54 23.3133C163.28 30.5933 164.667 49.7466 159.293 72.1067C181.307 78.6067 197.167 89.3533 197.167 104C197.167 118.647 181.307 129.393 159.293 135.893C164.667 158.253 163.28 177.407 150.54 184.687C137.887 191.967 120.64 183.647 104 167.787C87.36 183.647 70.1133 191.967 57.3733 184.687C44.72 177.407 43.3333 158.253 48.7067 135.893C26.6933 129.393 10.8333 118.647 10.8333 104C10.8333 89.3533 26.6933 78.6067 48.7067 72.1067C43.3333 49.7466 44.72 30.5933 57.3733 23.3133C70.1133 16.0333 87.36 24.3533 104 40.2133C120.64 24.3533 137.887 16.0333 150.54 23.3133ZM148.027 104C150.973 110.5 153.573 117 155.74 123.587C173.94 118.127 184.167 110.327 184.167 104C184.167 97.6733 173.94 89.8733 155.74 84.4133C153.573 91 150.973 97.5 148.027 104ZM59.9733 104C57.0267 97.5 54.4267 91 52.26 84.4133C34.06 89.8733 23.8333 97.6733 23.8333 104C23.8333 110.327 34.06 118.127 52.26 123.587C54.4267 117 57.0267 110.5 59.9733 104ZM137.973 123.587L135.373 128.007C138.06 127.573 140.66 127.14 143 126.62C142.393 124.193 141.44 121.68 140.487 119.167L137.973 123.587ZM112.927 158.6C126.707 171.6 138.667 176.627 144.04 173.333C149.587 170.3 151.233 157.56 146.813 139.013C140.14 140.4 133.12 141.44 126.013 142.133C121.853 147.94 117.433 153.487 112.927 158.6ZM70.0267 84.4133L72.6267 79.9933C69.94 80.4267 67.34 80.86 65 81.38C65.6067 83.8067 66.56 86.32 67.5133 88.8333L70.0267 84.4133ZM95.0733 49.4C81.2933 36.4 69.3333 31.3733 63.8733 34.6666C58.4133 37.7 56.7667 50.44 61.1867 68.9867C68.0603 67.5813 75.0033 66.5399 81.9867 65.8667C86.1467 60.06 90.5667 54.5133 95.0733 49.4Z" fill="white"/>
</svg>
