<svg width="208" height="208" viewBox="0 0 208 208" fill="none" xmlns="http://www.w3.org/2000/svg">
<path d="M102.111 49.5734C91.9438 49.4353 82.0823 53.0466 74.4089 59.7176C66.7355 66.3887 61.7879 75.6521 60.5107 85.7394C62.9722 81.5451 66.4253 78.0188 70.567 75.4697C74.7087 72.9206 79.4125 71.4266 84.266 71.1187C98.904 71.1187 110.041 88.2094 116.835 93.5394C123.321 98.6659 130.984 102.092 139.13 103.507C147.275 104.922 155.644 104.281 163.479 101.643C180.813 96.1134 188.907 76.8127 190.667 67.6607C182.269 79.612 169.52 86.788 153.755 78.3294C142.896 72.4967 134.775 48.5334 102.111 49.5734ZM58.9333 103.818C48.7663 103.674 38.9028 107.282 31.2284 113.952C23.554 120.623 18.6071 129.887 17.3333 139.975C19.7982 135.776 23.2566 132.247 27.4048 129.698C31.553 127.148 36.2638 125.657 41.1233 125.355C55.7613 125.355 66.898 142.445 73.6927 147.775C80.1785 152.902 87.8416 156.328 95.9869 157.743C104.132 159.158 112.502 158.517 120.337 155.879C137.67 150.349 145.756 131.049 147.524 121.897C139.117 133.848 126.377 141.033 110.613 132.565C99.7533 126.733 91.6327 102.726 58.9333 103.818Z" fill="white"/>
</svg>
